<svg xmlns="http://www.w3.org/2000/svg" viewBox="0 0 41.77 41.77"><defs><style>.cls-1{fill:#fff;}</style></defs><title>Element 1</title><g id="Ebene_2" data-name="Ebene 2"><g id="Ebene_1-2" data-name="Ebene 1"><path class="cls-1" d="M9.93,41.77A9.94,9.94,0,0,1,0,31.84V30.46A13.64,13.64,0,0,1,13.63,16.84h6.23v15A10,10,0,0,1,12,41.57,10.48,10.48,0,0,1,9.93,41.77Zm3.7-21.91A10.62,10.62,0,0,0,3,30.46v1.38a6.92,6.92,0,0,0,6.91,6.91,6.69,6.69,0,0,0,1.41-.15,6.93,6.93,0,0,0,5.5-6.76v-12Z"/><path class="cls-1" d="M3,30.46H0V9.93A9.94,9.94,0,0,1,9.93,0H31.84a9.93,9.93,0,1,1,0,19.86H13.63A10.62,10.62,0,0,0,3,30.46ZM9.93,3A6.92,6.92,0,0,0,3,9.93v12a13.63,13.63,0,0,1,10.61-5.07H31.84A6.91,6.91,0,1,0,31.84,3Z"/></g></g></svg>