<svg id="Ebene_1" data-name="Ebene 1" xmlns="http://www.w3.org/2000/svg" viewBox="0 0 174.72 62.53"><defs><style>.cls-1{fill:#272332;}.cls-2{fill:#4e6ac6;}</style></defs><title>Zeichenfläche 1</title><path class="cls-1" d="M64.13,60.8a6.79,6.79,0,0,1-3.8-1A5.37,5.37,0,0,1,58.16,57l2.56-1.49a3.41,3.41,0,0,0,3.49,2.32,3,3,0,0,0,1.85-.46,1.38,1.38,0,0,0,.58-1.15A1.4,1.4,0,0,0,65.93,55a11.6,11.6,0,0,0-2.56-1,16,16,0,0,1-1.73-.61,7.28,7.28,0,0,1-1.41-.81,3.33,3.33,0,0,1-1.08-1.3,4.28,4.28,0,0,1-.36-1.82,4.07,4.07,0,0,1,1.46-3.29A5.3,5.3,0,0,1,63.78,45a5.84,5.84,0,0,1,3.24.9,6,6,0,0,1,2.19,2.5l-2.52,1.46a3,3,0,0,0-2.91-2,2.34,2.34,0,0,0-1.47.43,1.34,1.34,0,0,0-.53,1.09,1.4,1.4,0,0,0,.6,1.17,8.7,8.7,0,0,0,2.29,1l1,.34c.24.08.57.2,1,.37a5.65,5.65,0,0,1,1,.46,6.38,6.38,0,0,1,.77.59,3.07,3.07,0,0,1,.67.76,4.59,4.59,0,0,1,.39.94,4.27,4.27,0,0,1,.16,1.21,4.07,4.07,0,0,1-1.53,3.34A6.11,6.11,0,0,1,64.13,60.8Z"/><path class="cls-1" d="M80.69,59.14a5.58,5.58,0,0,1-4.08,1.66,5.73,5.73,0,1,1,0-11.46A5.58,5.58,0,0,1,80.69,51a5.79,5.79,0,0,1,0,8.14Zm-6.18-1.92a3,3,0,0,0,4.2,0,3.14,3.14,0,0,0,0-4.3,3,3,0,0,0-4.2,0,3.2,3.2,0,0,0,0,4.3Z"/><path class="cls-1" d="M89.92,47.69c-1.53-.12-2.3.5-2.3,1.84v.11h2.3v2.69h-2.3V60.5h-2.8V52.33H83.26V49.64h1.56v-.11A4.55,4.55,0,0,1,86.1,46a4.92,4.92,0,0,1,3.82-1Z"/><path class="cls-1" d="M97.82,52.33H95.37v4.52a1.08,1.08,0,0,0,.28.82,1.28,1.28,0,0,0,.83.3,12.18,12.18,0,0,0,1.34,0V60.5c-1.92.21-3.28,0-4.07-.55a3.63,3.63,0,0,1-1.18-3.1V52.33H90.68V49.64h1.89V47.45l2.8-.85v3h2.45Z"/><path class="cls-1" d="M112.23,49.64h2.68L111.75,60.5H109l-2-6.58-2,6.58h-2.75L99,49.64h3l1.86,6.67,2-6.67h2.65l2,6.69Z"/><path class="cls-1" d="M124.42,49.64h2.8V60.5h-2.8V59.22a4.28,4.28,0,0,1-3.54,1.58,4.93,4.93,0,0,1-3.73-1.66,6.12,6.12,0,0,1,0-8.14,4.93,4.93,0,0,1,3.73-1.66,4.28,4.28,0,0,1,3.54,1.58Zm-5.17,7.63a2.89,2.89,0,0,0,2.15.86,2.93,2.93,0,0,0,2.16-.86,3.24,3.24,0,0,0,0-4.4A2.89,2.89,0,0,0,121.4,52a2.86,2.86,0,0,0-2.15.86,3.27,3.27,0,0,0,0,4.4Z"/><path class="cls-1" d="M132.48,51.51a2.93,2.93,0,0,1,1.29-1.57,4,4,0,0,1,2-.52v3.13a3.29,3.29,0,0,0-2.29.52,2.48,2.48,0,0,0-1,2.24V60.5h-2.8V49.64h2.8Z"/><path class="cls-1" d="M139.62,56.22q.57,2,3.06,2a2.85,2.85,0,0,0,2.43-1.09l2.26,1.31a5.38,5.38,0,0,1-4.73,2.32,5.81,5.81,0,0,1-4.32-1.63,5.53,5.53,0,0,1-1.63-4.1A5.6,5.6,0,0,1,138.3,51a5.48,5.48,0,0,1,4.12-1.64A5.17,5.17,0,0,1,146.36,51a5.7,5.7,0,0,1,1.55,4.08,6.79,6.79,0,0,1-.1,1.15Zm0-2.17h5.53a2.61,2.61,0,0,0-1-1.65,2.85,2.85,0,0,0-1.71-.54,3,3,0,0,0-1.87.57A2.74,2.74,0,0,0,139.58,54.05Z"/><path class="cls-2" d="M12.22,43.66a10,10,0,0,1-9.93-9.93V32.35A13.65,13.65,0,0,1,15.92,18.72h6.23v15a9.93,9.93,0,0,1-9.93,9.93Zm3.7-21.92A10.62,10.62,0,0,0,5.32,32.35v1.38a6.91,6.91,0,0,0,6.9,6.9,7.33,7.33,0,0,0,1.41-.14,6.93,6.93,0,0,0,5.5-6.76v-12Z"/><path class="cls-2" d="M5.32,32.35h-3V11.81a10,10,0,0,1,9.93-9.93H34.14a9.93,9.93,0,1,1,0,19.86H15.92A10.62,10.62,0,0,0,5.32,32.35Zm6.9-27.44a6.91,6.91,0,0,0-6.9,6.9v12a13.61,13.61,0,0,1,10.6-5.07H34.14a6.91,6.91,0,0,0,0-13.81Z"/><path class="cls-1" d="M79.15,13.48H64.87v7.07H76.46v5.63H64.87V37.69H59V7.85H79.15Z"/><path class="cls-1" d="M85.48,13.82a3.42,3.42,0,0,1-3.37-3.37,3.35,3.35,0,0,1,1-2.39,3.22,3.22,0,0,1,2.37-1,3.26,3.26,0,0,1,2.41,1,3.31,3.31,0,0,1,1,2.39,3.24,3.24,0,0,1-1,2.37A3.32,3.32,0,0,1,85.48,13.82ZM82.75,37.69V16.37h5.5V37.69Z"/><path class="cls-1" d="M108.5,7.85H114V37.69h-5.5V35.17a8.23,8.23,0,0,1-6.9,3.11A9.67,9.67,0,0,1,94.25,35a11.23,11.23,0,0,1-3-8,11.23,11.23,0,0,1,3-8,9.67,9.67,0,0,1,7.35-3.26,8.25,8.25,0,0,1,6.9,3.11ZM98.38,31.36A5.76,5.76,0,0,0,102.62,33a5.7,5.7,0,0,0,4.22-1.68A5.91,5.91,0,0,0,108.5,27a5.91,5.91,0,0,0-1.66-4.33A5.7,5.7,0,0,0,102.62,21a5.76,5.76,0,0,0-4.24,1.68A5.89,5.89,0,0,0,96.7,27,5.89,5.89,0,0,0,98.38,31.36Z"/><path class="cls-1" d="M122.74,29.29c.74,2.67,2.75,4,6,4a5.61,5.61,0,0,0,4.78-2.14L138,33.72q-3.15,4.56-9.29,4.56a11.45,11.45,0,0,1-8.48-3.19A11,11,0,0,1,117,27a11,11,0,0,1,3.15-8,10.86,10.86,0,0,1,8.1-3.22A10.16,10.16,0,0,1,136,19a11.25,11.25,0,0,1,3,8,13.11,13.11,0,0,1-.21,2.26ZM122.66,25h10.87a5.18,5.18,0,0,0-1.94-3.24,5.58,5.58,0,0,0-3.35-1.07,5.77,5.77,0,0,0-3.66,1.13A5.38,5.38,0,0,0,122.66,25Z"/><path class="cls-1" d="M142.24,37.69V7.85h5.5V37.69Z"/><path class="cls-1" d="M169.09,35a11.26,11.26,0,0,1-19.26-8,11.27,11.27,0,1,1,22.54,0A10.82,10.82,0,0,1,169.09,35ZM157,31.25a5.52,5.52,0,0,0,4.11,1.66,5.59,5.59,0,0,0,4.13-1.66A5.7,5.7,0,0,0,166.87,27a5.72,5.72,0,0,0-1.66-4.22,5.59,5.59,0,0,0-4.13-1.66A5.52,5.52,0,0,0,157,22.81,5.75,5.75,0,0,0,155.32,27,5.74,5.74,0,0,0,157,31.25Z"/></svg>