<svg id="Capa_1" enable-background="new 0 0 510 510" height="512" viewBox="0 0 510 510" width="512" xmlns="http://www.w3.org/2000/svg"><g><path d="m442 360h-22v-285h-30v285h-22c-37.495 0-68 30.505-68 68v82h30v-45h30v45h30v-45h30v45h30v-45h30v45h30c0-27.654 0-57.801 0-82 0-37.495-30.505-68-68-68zm-112 68c0-20.953 17.047-38 38-38h74c20.953 0 38 17.047 38 38v7h-150z"/><path d="m300 255v-30c-16.35 0-288.847 0-300 0v30h22.505l26.999 255h206.992l26.999-255zm-120 0v30c0 16.542-13.458 30-30 30s-30-13.458-30-30v-30zm49.504 225h-153.008l-23.824-225h37.328v30c0 33.084 26.916 60 60 60s60-26.916 60-60v-30h43.328z"/><path d="m270 120c33.084 0 60-26.916 60-60s-26.916-60-60-60-60 26.916-60 60 26.916 60 60 60zm0-90c16.542 0 30 13.458 30 30s-13.458 30-30 30-30-13.458-30-30 13.458-30 30-30z"/><path d="m150 180c24.813 0 45-20.186 45-45s-20.187-45-45-45c-24.814 0-45 20.187-45 45s20.186 45 45 45zm0-60c8.271 0 15 6.729 15 15s-6.729 15-15 15c-8.272 0-15-6.729-15-15s6.728-15 15-15z"/></g></svg>