<svg id="Ebene_1" data-name="Ebene 1" xmlns="http://www.w3.org/2000/svg" viewBox="0 0 178.58 65.2"><defs><style>.cls-1{fill:#fff;}</style></defs><title>Zeichenfläche 1 Kopie</title><path class="cls-1" d="M66.05,62.06a6.83,6.83,0,0,1-3.8-1,5.43,5.43,0,0,1-2.17-2.75l2.57-1.49a3.41,3.41,0,0,0,3.49,2.32A3,3,0,0,0,68,58.67a1.38,1.38,0,0,0,.58-1.15,1.42,1.42,0,0,0-.71-1.25,11.23,11.23,0,0,0-2.57-1,15.72,15.72,0,0,1-1.72-.61,7.28,7.28,0,0,1-1.41-.81,3.4,3.4,0,0,1-1.08-1.3,4.31,4.31,0,0,1-.37-1.82,4.06,4.06,0,0,1,1.47-3.29,5.31,5.31,0,0,1,3.53-1.23,5.77,5.77,0,0,1,3.24.91,6,6,0,0,1,2.18,2.5l-2.51,1.46a3,3,0,0,0-2.91-2,2.26,2.26,0,0,0-1.47.43,1.33,1.33,0,0,0-.53,1.09,1.37,1.37,0,0,0,.6,1.16,8.17,8.17,0,0,0,2.29,1l1.05.34c.24.08.56.2,1,.37a5.65,5.65,0,0,1,1,.46,7.27,7.27,0,0,1,.77.59,3,3,0,0,1,.66.76,3.91,3.91,0,0,1,.4.94,4.6,4.6,0,0,1,.16,1.21A4.07,4.07,0,0,1,70,60.82,6.12,6.12,0,0,1,66.05,62.06Z"/><path class="cls-1" d="M78.53,62.06a5.73,5.73,0,1,1,2.89-10.7,5,5,0,0,1,2,2L81,54.81a2.49,2.49,0,0,0-1-1.07,2.88,2.88,0,0,0-1.49-.39,2.79,2.79,0,0,0-2.08.84,2.93,2.93,0,0,0-.83,2.14,2.87,2.87,0,0,0,.83,2.11,2.79,2.79,0,0,0,2.08.84A3,3,0,0,0,80,58.9a2.39,2.39,0,0,0,1-1l2.43,1.39a5.51,5.51,0,0,1-2,2A5.6,5.6,0,0,1,78.53,62.06Z"/><path class="cls-1" d="M91,50.6a3.9,3.9,0,0,1,2.94,1.19,4.53,4.53,0,0,1,1.17,3.3v6.67H92.27V55.44a2.21,2.21,0,0,0-.58-1.66,2.11,2.11,0,0,0-1.56-.58,2.33,2.33,0,0,0-1.74.67,2.83,2.83,0,0,0-.65,2v5.87h-2.8V46.56h2.8v5.56A3.6,3.6,0,0,1,91,50.6Z"/><path class="cls-1" d="M106.64,60.4a5.73,5.73,0,1,1,0-8.14,5.79,5.79,0,0,1,0,8.14Zm-6.18-1.92a2.85,2.85,0,0,0,2.1.84,2.89,2.89,0,0,0,2.11-.84,3.17,3.17,0,0,0,0-4.3,2.86,2.86,0,0,0-2.11-.85,2.82,2.82,0,0,0-2.1.85,3.2,3.2,0,0,0,0,4.3Z"/><path class="cls-1" d="M119.41,60.4a5.73,5.73,0,1,1,0-8.14,5.79,5.79,0,0,1,0,8.14Zm-6.18-1.92a2.83,2.83,0,0,0,2.09.84,2.87,2.87,0,0,0,2.11-.84,3.14,3.14,0,0,0,0-4.3,2.84,2.84,0,0,0-2.11-.85,2.8,2.8,0,0,0-2.09.85,3.17,3.17,0,0,0,0,4.3Z"/><path class="cls-1" d="M122.94,61.76V45.91h2.81V61.76Z"/><path class="cls-1" d="M13.93,44.91A9.94,9.94,0,0,1,4,35V33.6A13.65,13.65,0,0,1,17.63,20h6.23V35A10,10,0,0,1,16,44.7,9.76,9.76,0,0,1,13.93,44.91ZM17.63,23A10.61,10.61,0,0,0,7,33.6V35a6.91,6.91,0,0,0,6.9,6.91,6.69,6.69,0,0,0,1.41-.15A6.92,6.92,0,0,0,20.84,35V23Z"/><path class="cls-1" d="M7,33.6H4V13.07a9.94,9.94,0,0,1,9.93-9.93H35.84a9.93,9.93,0,1,1,0,19.86H17.63A10.61,10.61,0,0,0,7,33.6Zm6.9-27.44A6.91,6.91,0,0,0,7,13.07v12A13.62,13.62,0,0,1,17.63,20H35.84a6.91,6.91,0,1,0,0-13.81Z"/><path class="cls-1" d="M80.86,14.73H66.58v7.08H78.17v5.62H66.58V38.94H60.7V9.11H80.86Z"/><path class="cls-1" d="M87.19,15.07a3.42,3.42,0,0,1-3.37-3.36,3.34,3.34,0,0,1,1-2.39,3.22,3.22,0,0,1,2.37-1,3.26,3.26,0,0,1,2.41,1,3.34,3.34,0,0,1,1,2.39,3.41,3.41,0,0,1-3.41,3.36ZM84.46,38.94V17.63H90V38.94Z"/><path class="cls-1" d="M110.21,9.11h5.5V38.94h-5.5V36.43a8.25,8.25,0,0,1-6.9,3.11A9.71,9.71,0,0,1,96,36.28a11.29,11.29,0,0,1-3-8,11.28,11.28,0,0,1,3-8A9.71,9.71,0,0,1,103.31,17a8.25,8.25,0,0,1,6.9,3.11Zm-10.12,23.5a6.17,6.17,0,0,0,8.46,0,5.88,5.88,0,0,0,1.66-4.33A5.87,5.87,0,0,0,108.55,24a6.17,6.17,0,0,0-8.46,0,5.82,5.82,0,0,0-1.69,4.32A5.82,5.82,0,0,0,100.09,32.61Z"/><path class="cls-1" d="M124.45,30.54c.74,2.68,2.74,4,6,4a5.62,5.62,0,0,0,4.77-2.13L139.67,35q-3.16,4.56-9.29,4.56a11.49,11.49,0,0,1-8.49-3.2,10.93,10.93,0,0,1-3.19-8.06,11,11,0,0,1,3.15-8A10.86,10.86,0,0,1,130,17a10.19,10.19,0,0,1,7.74,3.24,11.25,11.25,0,0,1,3,8,12.93,12.93,0,0,1-.21,2.26Zm-.08-4.26h10.86A5.13,5.13,0,0,0,133.3,23,5.57,5.57,0,0,0,130,22a5.76,5.76,0,0,0-3.67,1.13A5.39,5.39,0,0,0,124.37,26.28Z"/><path class="cls-1" d="M144,38.94V9.11h5.5V38.94Z"/><path class="cls-1" d="M170.8,36.28a11.27,11.27,0,0,1-19.27-8,11.28,11.28,0,1,1,22.55,0A10.84,10.84,0,0,1,170.8,36.28ZM158.67,32.5a5.93,5.93,0,0,0,8.25,0,5.69,5.69,0,0,0,1.66-4.22,5.68,5.68,0,0,0-1.66-4.21,5.93,5.93,0,0,0-8.25,0A5.74,5.74,0,0,0,157,28.28,5.75,5.75,0,0,0,158.67,32.5Z"/></svg>