<svg xmlns="http://www.w3.org/2000/svg" viewBox="0 0 170.08 58.92"><defs><style>.cls-1{fill:#272332;}.cls-2{fill:#ff5e50;}</style></defs><title>Element 1</title><g id="Ebene_2" data-name="Ebene 2"><g id="Ebene_1-2" data-name="Ebene 1"><path class="cls-1" d="M62.05,58.92a6.75,6.75,0,0,1-3.8-1,5.39,5.39,0,0,1-2.17-2.74l2.56-1.5A3.42,3.42,0,0,0,62.14,56,3,3,0,0,0,64,55.54a1.42,1.42,0,0,0,.59-1.16,1.38,1.38,0,0,0-.72-1.24,10.82,10.82,0,0,0-2.56-1,15.72,15.72,0,0,1-1.72-.61,7.65,7.65,0,0,1-1.42-.81,3.35,3.35,0,0,1-1.07-1.29,4.18,4.18,0,0,1-.37-1.83,4.08,4.08,0,0,1,1.47-3.29,5.33,5.33,0,0,1,3.52-1.22A5.88,5.88,0,0,1,65,44a6,6,0,0,1,2.18,2.51L64.61,48A3,3,0,0,0,61.7,46a2.29,2.29,0,0,0-1.46.42,1.32,1.32,0,0,0-.53,1.1,1.41,1.41,0,0,0,.59,1.16,8.52,8.52,0,0,0,2.29,1l1.06.34c.24.08.56.2,1,.37a5.36,5.36,0,0,1,1,.47,8.14,8.14,0,0,1,.77.58,3,3,0,0,1,.66.76,4.46,4.46,0,0,1,.39,1,4.19,4.19,0,0,1,.17,1.2A4.07,4.07,0,0,1,66,57.68,6.12,6.12,0,0,1,62.05,58.92Z"/><path class="cls-1" d="M74.53,58.92a5.73,5.73,0,1,1,0-11.46,5.6,5.6,0,0,1,2.89.76,5.11,5.11,0,0,1,2,2L77,51.67a2.47,2.47,0,0,0-1-1.06,2.88,2.88,0,0,0-1.49-.39,2.82,2.82,0,0,0-2.08.83,3.15,3.15,0,0,0,0,4.26,2.82,2.82,0,0,0,2.08.83A2.9,2.9,0,0,0,76,55.76a2.39,2.39,0,0,0,1-1l2.43,1.39a5.44,5.44,0,0,1-2,2A5.6,5.6,0,0,1,74.53,58.92Z"/><path class="cls-1" d="M87,47.46a3.93,3.93,0,0,1,2.94,1.19A4.52,4.52,0,0,1,91.07,52v6.67h-2.8V52.3a2.22,2.22,0,0,0-.58-1.66,2.15,2.15,0,0,0-1.57-.58,2.29,2.29,0,0,0-1.73.68,2.77,2.77,0,0,0-.65,2v5.86h-2.8V43.42h2.8V49A3.61,3.61,0,0,1,87,47.46Z"/><path class="cls-1" d="M102.64,57.26a5.58,5.58,0,0,1-4.08,1.66,5.73,5.73,0,1,1,0-11.46,5.75,5.75,0,0,1,4.08,9.8Zm-6.18-1.92a3,3,0,0,0,5.05-2.15,2.9,2.9,0,0,0-.85-2.15,3,3,0,0,0-4.2,0,3.2,3.2,0,0,0,0,4.3Z"/><path class="cls-1" d="M115.4,57.26a5.77,5.77,0,1,1,1.68-4.07A5.54,5.54,0,0,1,115.4,57.26Zm-6.17-1.92a2.82,2.82,0,0,0,2.09.85,2.91,2.91,0,0,0,3-3,2.94,2.94,0,0,0-.85-2.15,2.9,2.9,0,0,0-2.11-.85,2.82,2.82,0,0,0-2.09.85,3.17,3.17,0,0,0,0,4.3Z"/><path class="cls-1" d="M118.94,58.62V42.77h2.8V58.62Z"/><path class="cls-2" d="M9.93,41.77A9.94,9.94,0,0,1,0,31.84V30.46A13.64,13.64,0,0,1,13.63,16.84h6.23v15A10,10,0,0,1,12,41.57,10.48,10.48,0,0,1,9.93,41.77Zm3.7-21.91A10.62,10.62,0,0,0,3,30.46v1.38a6.92,6.92,0,0,0,6.91,6.91,6.69,6.69,0,0,0,1.41-.15,6.93,6.93,0,0,0,5.5-6.76v-12Z"/><path class="cls-2" d="M3,30.46H0V9.93A9.94,9.94,0,0,1,9.93,0H31.84a9.93,9.93,0,1,1,0,19.86H13.63A10.62,10.62,0,0,0,3,30.46ZM9.93,3A6.92,6.92,0,0,0,3,9.93v12a13.63,13.63,0,0,1,10.61-5.07H31.84A6.91,6.91,0,1,0,31.84,3Z"/><path class="cls-1" d="M76.86,11.59H62.58v7.08H74.17v5.62H62.58V35.8H56.69V6H76.86Z"/><path class="cls-1" d="M83.19,11.93a3.24,3.24,0,0,1-2.37-1,3.2,3.2,0,0,1-1-2.36,3.3,3.3,0,0,1,1-2.39,3.3,3.3,0,0,1,4.77,0,3.31,3.31,0,0,1,1,2.39,3.21,3.21,0,0,1-1,2.36A3.26,3.26,0,0,1,83.19,11.93ZM80.46,35.8V14.49H86V35.8Z"/><path class="cls-1" d="M106.21,6h5.5V35.8h-5.5V33.29A8.26,8.26,0,0,1,99.3,36.4,9.71,9.71,0,0,1,92,33.14a11.27,11.27,0,0,1-3-8,11.26,11.26,0,0,1,3-8A9.67,9.67,0,0,1,99.3,13.9,8.23,8.23,0,0,1,106.21,17ZM96.09,29.47a6.14,6.14,0,0,0,8.46,0,5.91,5.91,0,0,0,1.66-4.32,5.94,5.94,0,0,0-1.66-4.33,6.17,6.17,0,0,0-8.46,0,5.84,5.84,0,0,0-1.69,4.33A5.82,5.82,0,0,0,96.09,29.47Z"/><path class="cls-1" d="M120.45,27.41q1.11,4,6,4a5.62,5.62,0,0,0,4.77-2.13l4.44,2.56c-2.11,3-5.2,4.56-9.3,4.56a11.47,11.47,0,0,1-8.48-3.2,10.9,10.9,0,0,1-3.19-8.05,11,11,0,0,1,3.15-8A10.86,10.86,0,0,1,126,13.9a10.18,10.18,0,0,1,7.73,3.23,11.28,11.28,0,0,1,3,8,13.11,13.11,0,0,1-.21,2.26Zm-.09-4.27h10.87a5.14,5.14,0,0,0-1.94-3.23A5.48,5.48,0,0,0,126,18.84,5.82,5.82,0,0,0,122.28,20,5.46,5.46,0,0,0,120.36,23.14Z"/><path class="cls-1" d="M140,35.8V6h5.5V35.8Z"/><path class="cls-1" d="M166.8,33.14a11.27,11.27,0,0,1-19.27-8,11.28,11.28,0,1,1,22.55,0A10.86,10.86,0,0,1,166.8,33.14Zm-12.13-3.77A5.57,5.57,0,0,0,158.78,31a5.66,5.66,0,0,0,4.14-1.66,5.72,5.72,0,0,0,1.66-4.22,5.7,5.7,0,0,0-1.66-4.22,5.62,5.62,0,0,0-4.14-1.66,5.53,5.53,0,0,0-4.11,1.66A5.77,5.77,0,0,0,153,25.15,5.78,5.78,0,0,0,154.67,29.37Z"/></g></g></svg>