<svg id="Ebene_1" data-name="Ebene 1" xmlns="http://www.w3.org/2000/svg" viewBox="0 0 178.58 64.94"><defs><style>.cls-1{fill:#272332;}</style></defs><title>Zeichenfläche 1 Kopie</title><path class="cls-1" d="M66.8,62.26a6.75,6.75,0,0,1-3.8-1,5.4,5.4,0,0,1-2.17-2.74L63.4,57a3.4,3.4,0,0,0,3.49,2.32,3.05,3.05,0,0,0,1.85-.45,1.44,1.44,0,0,0-.13-2.4,11.13,11.13,0,0,0-2.57-1,13.87,13.87,0,0,1-1.72-.61,7.28,7.28,0,0,1-1.41-.81,3.37,3.37,0,0,1-1.08-1.29A4.33,4.33,0,0,1,61.46,51a4.08,4.08,0,0,1,1.47-3.29,5.35,5.35,0,0,1,3.53-1.22,5.84,5.84,0,0,1,3.24.9,6,6,0,0,1,2.18,2.51l-2.51,1.45a3,3,0,0,0-2.91-2,2.32,2.32,0,0,0-1.47.42,1.35,1.35,0,0,0-.53,1.1,1.39,1.39,0,0,0,.6,1.16,7.93,7.93,0,0,0,2.29,1l1.05.34c.24.08.56.2,1,.37a5.57,5.57,0,0,1,1,.47,7,7,0,0,1,.77.58,3,3,0,0,1,.66.76,4,4,0,0,1,.4.95,4.58,4.58,0,0,1,.16,1.2A4.09,4.09,0,0,1,70.79,61,6.17,6.17,0,0,1,66.8,62.26Z"/><path class="cls-1" d="M79.28,62.26a5.73,5.73,0,1,1,2.89-10.7,5.11,5.11,0,0,1,2,2L81.74,55a2.47,2.47,0,0,0-1-1.06,2.88,2.88,0,0,0-1.49-.39,2.82,2.82,0,0,0-2.08.83,2.93,2.93,0,0,0-.83,2.14,2.89,2.89,0,0,0,.83,2.12,2.78,2.78,0,0,0,2.08.83,2.9,2.9,0,0,0,1.51-.38,2.39,2.39,0,0,0,1-1.05l2.43,1.39a5.37,5.37,0,0,1-2,2.05A5.51,5.51,0,0,1,79.28,62.26Z"/><path class="cls-1" d="M91.72,50.8A3.93,3.93,0,0,1,94.66,52a4.53,4.53,0,0,1,1.17,3.3V62H93V55.64A2.22,2.22,0,0,0,92.44,54a2.14,2.14,0,0,0-1.56-.57,2.29,2.29,0,0,0-1.74.67,2.82,2.82,0,0,0-.65,2V62h-2.8V46.76h2.8v5.56A3.62,3.62,0,0,1,91.72,50.8Z"/><path class="cls-1" d="M107.39,60.6a5.79,5.79,0,1,1,1.67-4.07A5.48,5.48,0,0,1,107.39,60.6Zm-6.18-1.92a2.82,2.82,0,0,0,2.1.85,2.86,2.86,0,0,0,2.11-.85,3,3,0,0,0-2.11-5.14,2.85,2.85,0,0,0-2.1.84,3.2,3.2,0,0,0,0,4.3Z"/><path class="cls-1" d="M120.16,60.6a5.79,5.79,0,1,1,1.67-4.07A5.51,5.51,0,0,1,120.16,60.6ZM114,58.68a2.8,2.8,0,0,0,2.09.85,2.84,2.84,0,0,0,2.11-.85,3,3,0,0,0-2.11-5.14,2.83,2.83,0,0,0-2.09.84,3.17,3.17,0,0,0,0,4.3Z"/><path class="cls-1" d="M123.69,62V46.11h2.81V62Z"/><path class="cls-1" d="M14.68,45.11a9.94,9.94,0,0,1-9.93-9.93V33.8A13.64,13.64,0,0,1,18.38,20.18h6.23v15a10,10,0,0,1-7.91,9.73A9.75,9.75,0,0,1,14.68,45.11Zm3.7-21.91A10.61,10.61,0,0,0,7.78,33.8v1.38a6.91,6.91,0,0,0,6.9,6.91A7.41,7.41,0,0,0,16.09,42a6.93,6.93,0,0,0,5.5-6.77v-12Z"/><path class="cls-1" d="M7.78,33.8h-3V13.27a10,10,0,0,1,9.93-9.93H36.59a9.93,9.93,0,1,1,0,19.86H18.38A10.61,10.61,0,0,0,7.78,33.8Zm6.9-27.43a6.9,6.9,0,0,0-6.9,6.9v12a13.61,13.61,0,0,1,10.6-5.07H36.59a6.91,6.91,0,1,0,0-13.81Z"/><path class="cls-1" d="M81.61,14.93H67.33V22H78.92v5.63H67.33v11.5H61.45V9.31H81.61Z"/><path class="cls-1" d="M87.94,15.28a3.43,3.43,0,0,1-3.37-3.37,3.34,3.34,0,0,1,1-2.39,3.22,3.22,0,0,1,2.37-1,3.26,3.26,0,0,1,2.41,1,3.34,3.34,0,0,1,1,2.39,3.24,3.24,0,0,1-1,2.36A3.29,3.29,0,0,1,87.94,15.28ZM85.21,39.14V17.83h5.5V39.14Z"/><path class="cls-1" d="M111,9.31h5.5V39.14H111V36.63a8.25,8.25,0,0,1-6.9,3.11,9.71,9.71,0,0,1-7.36-3.26,11.27,11.27,0,0,1-3-8,11.25,11.25,0,0,1,3-8,9.68,9.68,0,0,1,7.36-3.26,8.23,8.23,0,0,1,6.9,3.11Zm-10.12,23.5a6.14,6.14,0,0,0,8.46,0A5.87,5.87,0,0,0,111,28.49a5.91,5.91,0,0,0-1.66-4.33,6.17,6.17,0,0,0-8.46,0,5.85,5.85,0,0,0-1.69,4.33A5.82,5.82,0,0,0,100.84,32.81Z"/><path class="cls-1" d="M125.2,30.75q1.11,4,6,4A5.62,5.62,0,0,0,136,32.62l4.44,2.56q-3.16,4.56-9.29,4.56a11.49,11.49,0,0,1-8.49-3.2,10.9,10.9,0,0,1-3.19-8,11,11,0,0,1,3.15-8,10.86,10.86,0,0,1,8.1-3.21,10.19,10.19,0,0,1,7.74,3.24,11.25,11.25,0,0,1,3,8,13.11,13.11,0,0,1-.21,2.26Zm-.08-4.26H136a5.13,5.13,0,0,0-1.93-3.24,5.58,5.58,0,0,0-3.35-1.07A5.82,5.82,0,0,0,127,23.31,5.39,5.39,0,0,0,125.12,26.49Z"/><path class="cls-1" d="M144.7,39.14V9.31h5.5V39.14Z"/><path class="cls-1" d="M171.55,36.48a11.27,11.27,0,0,1-19.27-8,11.28,11.28,0,1,1,22.55,0A10.82,10.82,0,0,1,171.55,36.48Zm-12.13-3.77a6,6,0,0,0,8.25,0,5.72,5.72,0,0,0,1.66-4.22,5.7,5.7,0,0,0-1.66-4.22,6,6,0,0,0-8.25,0,5.77,5.77,0,0,0-1.64,4.22A5.78,5.78,0,0,0,159.42,32.71Z"/></svg>