<?xml version="1.0" standalone="no"?>
<!DOCTYPE svg PUBLIC "-//W3C//DTD SVG 20010904//EN"
 "http://www.w3.org/TR/2001/REC-SVG-20010904/DTD/svg10.dtd">
<svg version="1.0" xmlns="http://www.w3.org/2000/svg"
 width="700.000000pt" height="700.000000pt" viewBox="0 0 700.000000 700.000000"
 preserveAspectRatio="xMidYMid meet">
<metadata>
Created by potrace 1.11, written by Peter Selinger 2001-2013
</metadata>
<g transform="translate(0.000000,700.000000) scale(0.100000,-0.100000)"
fill="#000000" stroke="none">
<path d="M1539 6996 c-2 -2 -33 -7 -69 -10 -314 -33 -668 -193 -918 -415 -54
-48 -138 -139 -206 -221 -82 -100 -213 -350 -260 -495 -29 -90 -61 -230 -73
-320 -10 -76 -11 -3979 0 -4060 11 -91 17 -122 44 -223 76 -294 220 -548 430
-758 221 -224 482 -367 823 -454 157 -40 490 -48 646 -15 12 3 39 7 60 11 21
3 85 21 142 40 558 187 990 665 1129 1249 39 165 41 228 42 1304 1 569 3 1036
4 1037 1 2 491 5 1087 7 1153 4 1127 3 1320 52 592 150 1048 604 1205 1199 24
93 29 117 44 241 9 76 7 316 -3 380 -39 234 -85 379 -182 565 -77 148 -172
277 -294 400 -255 254 -568 412 -940 470 -108 18 -229 19 -2071 19 -1076 1
-1958 -1 -1960 -3z m3946 -508 c6 -3 30 -9 54 -13 63 -9 205 -59 281 -97 130
-67 213 -127 322 -235 302 -298 419 -704 315 -1088 -74 -269 -277 -539 -525
-698 -103 -66 -300 -147 -391 -161 -14 -3 -46 -8 -71 -12 -25 -5 -796 -9
-1715 -9 -1811 0 -1722 2 -1965 -54 -440 -101 -841 -324 -1149 -640 -40 -42
-85 -91 -98 -108 -14 -18 -29 -33 -33 -33 -4 0 -6 478 -5 1063 2 1161 -1 1104
61 1284 119 344 413 634 763 752 51 18 112 34 135 37 22 3 57 9 76 13 44 9
3931 8 3945 -1z m-2665 -3850 c-1 -921 -4 -1086 -24 -1183 -46 -227 -158 -429
-335 -605 -233 -232 -490 -341 -801 -341 -297 1 -573 122 -805 356 -145 145
-236 289 -294 468 -34 101 -38 119 -50 222 -9 71 -6 480 4 525 3 14 8 45 11
70 3 25 14 83 25 130 152 662 648 1169 1307 1334 181 46 253 52 639 55 l323 2
0 -1033z"/>
</g>
</svg>
